# xmcd
#
# Track frame offsets: 
#        150
#        15436
#        35759
#        55269
#        79938
#        102141
#        121382
#        169488
#
# Disc length: 2613 seconds
#
# Revision: 0
# Processed by: cddbd v1.5.2PL0 Copyright (c) Steve Scherf et al.
# Submitted via: ExactAudioCopyFreeDBPlugin 1.0
#
DISCID=630a3308
DTITLE=Various Artist - Mavis Staples - I'll Take You There - An All-
DTITLE=Star Concert Celebration [CD 2)
DYEAR=2017
DGENRE=R&B
TTITLE0=Taj Mahal - Wade In The Water
TTITLE1=Gregg Alman - Have A Little Faith
TTITLE2=Mavis Staples and Bonnie Raitt - Turn Me Around
TTITLE3=Mavis Staples, Gregg Allman, Taj Mahal, Aaron Neville and Bonnie
TTITLE3=Raitt - Will The Circle Be Unbroken
TTITLE4=Mavis Staples, Win Butler, Régine Chassange - Slippery People
TTITLE5=Mavis Staples and Jeff Tweedy - You Are Not Alone
TTITLE6=Mavis Staples - I'll Take You There
TTITLE7=Full Ensemble - The Weight
EXTD=Sean P.
EXTT0=
EXTT1=
EXTT2=
EXTT3=
EXTT4=
EXTT5=
EXTT6=
EXTT7=
PLAYORDER=
